<svg xmlns="http://www.w3.org/2000/svg" width="192" height="52" fill="none" style="" aria-hidden="true"><rect id="backgroundrect" width="100%" height="100%" x="0" y="0" fill="none" stroke="none"/>



<g class="currentLayer" style=""><title>Layer 1</title><path d="M65.9286 37.7452V34.8618L76.6435 24.8131H69.1283V26.7882H66.1019V22.0613H80.6757V24.9447L70.0492 34.9357H77.8245V32.9263H80.8508V37.7452H65.9286ZM90.2422 38.0642C89.147 38.0686 88.0625 37.8497 87.0552 37.4208C85.0891 36.6006 83.5262 35.0401 82.7052 33.0777C82.2822 32.0707 82.0643 30.9897 82.0643 29.8978C82.0643 28.8059 82.2822 27.7249 82.7052 26.718C83.527 24.7564 85.0897 23.1967 87.0552 22.3766C88.0644 21.9543 89.1478 21.7368 90.2422 21.7368C91.3366 21.7368 92.42 21.9543 93.4292 22.3766C95.3947 23.1967 96.9574 24.7564 97.7791 26.718C98.201 27.7252 98.4183 28.8061 98.4183 29.8978C98.4183 30.9895 98.201 32.0704 97.7791 33.0777C96.9581 35.0401 95.3952 36.6006 93.4292 37.4208C92.4218 37.8495 91.3374 38.0685 90.2422 38.0642ZM90.2422 35.0438C90.9037 35.0469 91.5588 34.9145 92.1669 34.6547C92.7751 34.395 93.3233 34.0134 93.7777 33.5336C94.221 33.0596 94.5756 32.5103 94.825 31.9117C95.3499 30.6271 95.3499 29.1884 94.825 27.9038C94.5737 27.3027 94.2138 26.753 93.7633 26.2818C93.3126 25.8098 92.7733 25.4308 92.1761 25.1663C91.564 24.8977 90.9027 24.759 90.2341 24.759C89.5654 24.759 88.9041 24.8977 88.292 25.1663C87.0955 25.7002 86.1558 26.6801 85.6738 27.8965C85.1682 29.1849 85.1682 30.6162 85.6738 31.9045C86.1573 33.1199 87.0965 34.0994 88.292 34.6347C88.9053 34.9088 89.5703 35.0483 90.2422 35.0438ZM107.877 38.0642C106.781 38.0686 105.697 37.8497 104.69 37.4208C102.724 36.6006 101.161 35.0401 100.34 33.0777C99.9165 32.0707 99.6986 30.9897 99.6986 29.8978C99.6986 28.8059 99.9165 27.7249 100.34 26.718C101.161 24.7564 102.724 23.1967 104.69 22.3766C105.699 21.9543 106.782 21.7368 107.877 21.7368C108.971 21.7368 110.054 21.9543 111.064 22.3766C113.029 23.1967 114.592 24.7564 115.413 26.718C115.835 27.7252 116.053 28.8061 116.053 29.8978C116.053 30.9895 115.835 32.0704 115.413 33.0777C114.592 35.0401 113.03 36.6006 111.064 37.4208C110.056 37.8495 108.972 38.0685 107.877 38.0642ZM107.877 35.0438C108.538 35.0474 109.193 34.9153 109.802 34.6555C110.41 34.3957 110.958 34.0138 111.412 33.5336C111.855 33.0596 112.21 32.5103 112.459 31.9117C112.984 30.6271 112.984 29.1884 112.459 27.9038C112.208 27.3027 111.848 26.753 111.398 26.2818C110.947 25.8098 110.408 25.4308 109.81 25.1663C109.198 24.897 108.535 24.7578 107.866 24.7578C107.196 24.7578 106.534 24.897 105.921 25.1663C104.724 25.7002 103.785 26.6801 103.303 27.8965C102.797 29.1849 102.797 30.6162 103.303 31.9045C103.785 33.1213 104.725 34.1021 105.921 34.6383C106.536 34.9119 107.203 35.0502 107.877 35.0438ZM117.916 22.0685H121.029V23.8706C121.509 23.2156 122.137 22.6833 122.862 22.3172C123.677 21.9189 124.575 21.7218 125.482 21.7423C126.742 21.7423 127.785 21.9826 128.609 22.4631C129.425 22.9381 130.079 23.6462 130.487 24.4959C130.993 23.6623 131.704 22.9722 132.553 22.492C133.487 21.9755 134.541 21.7168 135.608 21.7423C136.56 21.7225 137.508 21.8801 138.402 22.2072C139.16 22.4891 139.841 22.9468 140.388 23.5426C140.925 24.1468 141.322 24.861 141.553 25.6349C141.814 26.521 141.942 27.4413 141.93 28.3651V37.7452H138.692V28.5381C138.692 27.3187 138.411 26.3407 137.849 25.6042C137.287 24.8678 136.384 24.5001 135.141 24.5013C134.015 24.5013 133.118 24.8618 132.448 25.5826C131.779 26.3035 131.444 27.3847 131.444 28.8264V37.7452H128.275V28.3345C128.275 27.133 127.999 26.1941 127.447 25.5177C126.894 24.8413 126.016 24.5025 124.812 24.5013C123.647 24.5013 122.73 24.8744 122.062 25.6205C121.394 26.3665 121.059 27.4845 121.058 28.9742V37.7452H117.916V22.0685ZM143.868 17.3649C143.859 17.0703 143.91 16.7769 144.017 16.5023C144.124 16.2276 144.286 15.9774 144.492 15.7664C144.698 15.5563 144.945 15.3912 145.218 15.2813C145.491 15.1715 145.784 15.1195 146.078 15.1285C146.378 15.1165 146.678 15.167 146.958 15.2768C147.237 15.3866 147.491 15.5534 147.703 15.7664C147.909 15.9774 148.071 16.2276 148.178 16.5023C148.285 16.7769 148.336 17.0703 148.328 17.3649C148.336 17.6593 148.285 17.9524 148.178 18.2267C148.071 18.5011 147.909 18.751 147.703 18.9616C147.491 19.175 147.238 19.342 146.958 19.4522C146.678 19.5623 146.378 19.6131 146.078 19.6013C145.781 19.6131 145.485 19.5623 145.209 19.452C144.934 19.3418 144.684 19.1746 144.478 18.9616C144.275 18.7481 144.116 18.4963 144.011 18.2209C143.906 17.9455 143.857 17.6521 143.868 17.3577V17.3649ZM144.507 22.0685H147.679V37.747H144.507V22.0685ZM150.411 22.0685H153.495V24.24C154.061 23.4465 154.813 22.8038 155.686 22.3682C156.559 21.9327 157.525 21.7178 158.501 21.7423C159.421 21.7299 160.334 21.8926 161.193 22.2216C161.965 22.5195 162.661 22.9856 163.23 23.5859C163.805 24.2148 164.241 24.957 164.51 25.7646C164.82 26.694 164.972 27.6686 164.96 28.648V37.7452H161.789V28.8877C161.789 27.5505 161.45 26.4855 160.771 25.6925C160.092 24.8996 159.093 24.5025 157.773 24.5013C157.2 24.496 156.631 24.6045 156.099 24.8203C155.594 25.0287 155.138 25.3406 154.761 25.7358C154.369 26.1543 154.068 26.6487 153.875 27.1883C153.654 27.7975 153.545 28.4417 153.553 29.0896V37.7398H150.411V22.0685ZM165.37 22.0685H168.105V21.1674C168.084 20.1472 168.186 19.1282 168.41 18.1326C168.57 17.4091 168.922 16.7417 169.429 16.2007C169.96 15.6842 170.625 15.3254 171.348 15.1645C172.346 14.9407 173.368 14.8385 174.391 14.8599H175.147V17.7632H174.622C174.014 17.7532 173.406 17.7923 172.804 17.8803C172.414 17.9253 172.05 18.0991 171.771 18.3741C171.518 18.6702 171.356 19.0333 171.305 19.4193C171.218 20.0057 171.179 20.5982 171.189 21.1908V22.0613H174.882V24.8798H171.189V37.7452H168.105V24.8798H165.37V22.0685ZM182.704 38.0714C181.605 38.0757 180.518 37.8542 179.508 37.4208C177.556 36.5946 176.002 35.0437 175.175 33.0957C174.752 32.0862 174.534 31.0029 174.534 29.9086C174.534 28.8144 174.752 27.731 175.175 26.7216C175.996 24.7653 177.551 23.2073 179.508 22.3802C180.52 21.9579 181.606 21.7405 182.702 21.7405C183.799 21.7405 184.885 21.9579 185.897 22.3802C187.863 23.2008 189.425 24.7611 190.247 26.7234C190.668 27.7329 190.886 28.8158 190.886 29.9095C190.886 31.0033 190.668 32.0862 190.247 33.0957C189.418 35.0491 187.857 36.6014 185.897 37.4208C184.889 37.8495 183.805 38.0685 182.71 38.0642L182.704 38.0714ZM182.704 35.1375C183.388 35.1438 184.065 35.0056 184.691 34.732C185.293 34.4679 185.836 34.0876 186.29 33.6129C186.752 33.1339 187.12 32.5728 187.374 31.9585C187.765 30.9973 187.871 29.944 187.679 28.9243C187.487 27.9046 187.005 26.9617 186.29 26.208C185.832 25.732 185.283 25.3522 184.676 25.0906C184.049 24.8219 183.373 24.6834 182.69 24.6834C182.007 24.6834 181.331 24.8219 180.704 25.0906C180.102 25.3543 179.558 25.734 179.104 26.208C178.648 26.6879 178.291 27.2524 178.053 27.8695C177.55 29.1832 177.55 30.6359 178.053 31.9495C178.296 32.5646 178.658 33.1265 179.116 33.6039C179.57 34.079 180.114 34.4594 180.716 34.723C181.344 34.9985 182.024 35.1374 182.71 35.1303L182.704 35.1375Z" fill="#000000" id="svg_1" class="" fill-opacity="1"/><path d="M0.464233 6.4643C0.464233 3.15059 3.15053 0.464294 6.46423 0.464294H45.5357C48.8494 0.464294 51.5357 3.15059 51.5357 6.46429V45.5357C51.5357 48.8494 48.8494 51.5357 45.5357 51.5357H6.46423C3.15053 51.5357 0.464233 48.8494 0.464233 45.5357V6.4643Z" fill="#F44238" id="svg_2"/><path d="M31.5047 14.3927H37.2029C37.4275 14.3927 37.6092 14.5759 37.6092 14.8023V20.3062C37.6114 20.5326 37.4319 20.718 37.2073 20.7202C37.2062 20.7202 37.204 20.7202 37.2029 20.7202H35.5909C35.3662 20.7202 35.1846 20.5371 35.1846 20.3106V18.6111L18.0054 35.1626H21.5388C21.7634 35.1626 21.9451 35.3457 21.9451 35.5722V37.1974C21.9451 37.4238 21.7634 37.607 21.5388 37.607H14.8012C14.5766 37.607 14.3949 37.4238 14.3949 37.1974V35.1703L33.436 16.8349H31.5047C31.2801 16.8349 31.0984 16.6517 31.0984 16.4253V14.8023C31.0984 14.5759 31.2801 14.3927 31.5047 14.3927ZM16.8173 16.7727H27.6421C27.8667 16.7727 28.0484 16.5896 28.0484 16.3631V14.8023C28.0484 14.577 27.8678 14.3938 27.6443 14.3927H14.8012C14.5766 14.3927 14.3949 14.5759 14.3949 14.8023V20.3728C14.3949 20.5992 14.5766 20.7824 14.8012 20.7824H16.4132C16.6367 20.7813 16.8173 20.5981 16.8173 20.3728V16.7727ZM35.1846 35.1626H25.3926C25.168 35.1626 24.9863 35.3457 24.9863 35.5722V37.1974C24.9863 37.4238 25.168 37.607 25.3926 37.607H37.2029C37.4275 37.607 37.6092 37.4238 37.6092 37.1974V31.4526C37.6081 31.2262 37.4275 31.0441 37.2029 31.043H35.5909C35.3662 31.043 35.1846 31.2262 35.1846 31.4526V35.1626Z" fill="white" id="svg_3"/></g></svg>