<?xml version="1.0" encoding="UTF-8"?>
<svg id="Layer_1" data-name="Layer 1" xmlns="http://www.w3.org/2000/svg" viewBox="0 0 200 200">
  <defs>
    <style>
      .cls-1 {
        fill: #fff;
      }

      .cls-2 {
        fill: #dce1e5;
      }
    </style>
  </defs>
  <rect class="cls-2" x="-6" y="-5" width="212" height="210"/>
  <path class="cls-1" d="m147.27,76.36h-42.55v-23.64c0-2.61-2.12-4.73-4.73-4.73h-47.27c-2.61,0-4.73,2.12-4.73,4.73v94.55c0,2.61,2.12,4.73,4.73,4.73h94.55c2.61,0,4.73-2.12,4.73-4.73v-66.18c0-2.61-2.12-4.73-4.73-4.73Zm-52,28.36h-37.82v-9.45h37.82v9.45Zm0-23.64v4.73h-37.82v-9.45h37.82v4.73Zm-37.82,33.09h37.82v9.45h-37.82v-9.45Zm37.82-56.73v9.45h-37.82v-9.45h37.82Zm-37.82,75.64h37.82v9.45h-37.82v-9.45Zm85.09,9.45h-37.82v-56.73h37.82v56.73Zm-23.64-23.64h-9.45v-9.45h9.45v9.45Zm0,18.91h-9.45v-9.45h9.45v9.45Zm18.91-18.91h-9.45v-9.45h9.45v9.45Zm-18.91-18.91h-9.45v-9.45h9.45v9.45Zm18.91,0h-9.45v-9.45h9.45v9.45Zm0,37.82h-9.45v-9.45h9.45v9.45Z"/>
</svg>