<?xml version="1.0" encoding="utf-8"?>
<!-- Generator: Adobe Illustrator 25.4.8, SVG Export Plug-In . SVG Version: 6.00 Build 0)  -->
<svg version="1.1" id="Layer_1" xmlns="http://www.w3.org/2000/svg" xmlns:xlink="http://www.w3.org/1999/xlink" x="0px" y="0px"
	 viewBox="0 0 800 600" style="enable-background:new 0 0 800 600;" xml:space="preserve">
<style type="text/css">
	.st0{fill:#0D467F;}
	.st1{fill:#C0DEF2;}
	.st2{fill:#B56542;}
	.st3{fill:#A0523A;}
	.st4{fill:none;stroke:#873E25;stroke-width:2.4351;stroke-linecap:round;stroke-miterlimit:10;}
	.st5{fill:#CC8652;}
	.st6{fill:#F275A5;}
	.st7{fill:#511E10;}
	.st8{fill:none;stroke:#511E10;stroke-width:3.1984;stroke-linecap:round;stroke-miterlimit:10;}
	.st9{fill:#C97659;}
	.st10{fill:#F9BB4A;}
	.st11{fill:none;stroke:#F49845;stroke-width:1.5992;stroke-miterlimit:10;}
	.st12{fill:#8597AA;}
	.st13{fill:#97A9BA;}
	.st14{fill:#A8A7A7;}
	.st15{fill:#768899;}
	.st16{clip-path:url(#SVGID_00000065777384572512113040000000024429116531077529_);}
	.st17{fill:#1691F7;}
	.st18{fill:#FFFFFF;}
	.st19{fill:#F4B97D;}
	.st20{fill:#DA8333;}
	.st21{clip-path:url(#SVGID_00000034085600584239089590000004178065208106159033_);fill:#1691F7;}
	
		.st22{clip-path:url(#SVGID_00000034085600584239089590000004178065208106159033_);fill:none;stroke:#0D467F;stroke-width:3.4158;stroke-linecap:round;stroke-miterlimit:10;}
	.st23{fill:none;stroke:#0D467F;stroke-width:3.4158;stroke-linecap:round;stroke-miterlimit:10;}
	.st24{fill:#E5A641;}
	.st25{fill:#BF7030;}
	.st26{fill:#F24444;}
	.st27{clip-path:url(#SVGID_00000083063652344831712390000001479231197276181907_);fill:#1691F7;}
	
		.st28{clip-path:url(#SVGID_00000083063652344831712390000001479231197276181907_);fill:none;stroke:#0D467F;stroke-width:2.3193;stroke-linecap:round;stroke-miterlimit:10;}
	.st29{fill:none;stroke:#0D467F;stroke-width:2.3193;stroke-linecap:round;stroke-miterlimit:10;}
	.st30{fill:#A6C1D1;}
	.st31{fill:#83A8BA;}
	.st32{fill:#EBEBEB;}
	.st33{fill:#C6D5E0;}
	.st34{clip-path:url(#SVGID_00000025438892377095070850000017593036620578735748_);}
	.st35{fill:#0A7AE0;}
	.st36{fill:none;stroke:#873E25;stroke-width:2.3006;stroke-linecap:round;stroke-miterlimit:10;}
	.st37{fill:none;stroke:#511E10;stroke-width:3.0218;stroke-linecap:round;stroke-miterlimit:10;}
	.st38{fill:none;stroke:#873E25;stroke-width:2.777;stroke-linecap:round;stroke-linejoin:round;stroke-miterlimit:10;}
	.st39{fill:none;stroke:#873E25;stroke-width:2.4879;stroke-linecap:round;stroke-linejoin:round;stroke-miterlimit:10;}
	.st40{fill:#0D1F28;}
	.st41{fill:none;stroke:#511E10;stroke-width:3;stroke-linecap:round;stroke-miterlimit:10;}
	.st42{fill:none;stroke:#873E25;stroke-width:2.4879;stroke-linecap:round;stroke-miterlimit:10;}
	.st43{fill:#102735;}
	.st44{fill:#D7EAF7;}
	.st45{fill:#F7AA2F;}
	.st46{fill:#AF682E;}
	.st47{fill:#EA9111;}
	.st48{fill:#EA9047;}
	.st49{fill:#FCC772;}
	.st50{fill:#C66E26;}
	.st51{fill:#70421C;}
	.st52{fill:#FFDDAB;}
	.st53{fill:#F4B860;}
	.st54{fill:#A0B2C1;}
	.st55{fill:#596D7F;}
	.st56{fill:none;stroke:#511E10;stroke-width:3.0086;stroke-linecap:round;stroke-miterlimit:10;}
	.st57{fill:none;stroke:#873E25;stroke-width:2.2906;stroke-linecap:round;stroke-miterlimit:10;}
	.st58{fill:#0D66D1;}
	.st59{fill:none;stroke:#1691F7;stroke-width:5.9739;stroke-linecap:round;stroke-miterlimit:10;}
	.st60{fill:none;stroke:#0D467F;stroke-width:3.9826;stroke-linecap:round;stroke-miterlimit:10;}
	.st61{fill:none;stroke:#1691F7;stroke-width:2.8281;stroke-linecap:round;stroke-miterlimit:10;}
	.st62{fill:none;stroke:#1691F7;stroke-width:2.8281;stroke-linecap:round;stroke-miterlimit:10;stroke-dasharray:14.0434,14.0434;}
	.st63{fill:none;stroke:#1691F7;stroke-width:2.8281;stroke-linecap:round;stroke-miterlimit:10;stroke-dasharray:11.8686,11.8686;}
	.st64{fill:#DFECF7;}
	.st65{clip-path:url(#XMLID_00000051382700429581950210000017504765184529913520_);fill:#0257D1;}
	.st66{clip-path:url(#XMLID_00000051382700429581950210000017504765184529913520_);fill:#003E89;}
	.st67{clip-path:url(#XMLID_00000051382700429581950210000017504765184529913520_);fill:#3998FF;}
	.st68{clip-path:url(#XMLID_00000174589390947397062410000001822047406068992158_);fill:#0257D1;}
	.st69{fill:#3998FF;}
	.st70{fill:#0257D1;}
	.st71{clip-path:url(#XMLID_00000165912841606991855370000016874969871930805945_);fill:#0257D1;}
	.st72{clip-path:url(#XMLID_00000005257781907072264090000013415010813943857552_);fill:#0257D1;}
	.st73{fill:#FC7CB9;}
	.st74{fill:#FF5A85;}
	.st75{fill:#0065FF;}
	.st76{fill:#003E89;}
	.st77{fill:#303030;}
	.st78{clip-path:url(#XMLID_00000067204178007818989910000005097721769072471965_);fill:#CC8652;}
	.st79{fill:#9B472A;}
	.st80{fill:#873E25;}
	.st81{fill:none;stroke:#873E25;stroke-width:2.945;stroke-miterlimit:10;}
</style>
<g>
	<path class="st64" d="M545.4,443.6H242.8c-6.4,0-11.6-5.2-11.6-11.6v0c0-6.4,5.2-11.6,11.6-11.6h302.6c6.4,0,11.6,5.2,11.6,11.6v0
		C557,438.3,551.8,443.6,545.4,443.6z"/>
	<g>
		<path class="st0" d="M231.6,353.6c-15.1,0-28.2-2.9-39.3-8.8c-11.1-5.9-20.5-15.5-28-28.8l39.7-19.7c1.9,7,5,12.6,9.3,16.8
			c4.3,4.2,10.7,6.3,19.3,6.3c5.4,0,10.1-1,13.9-2.9c3.9-1.9,6.9-4.8,9.1-8.5c2.2-3.8,3.3-8.4,3.3-13.8c0-5.3-1-9.6-3-13.1
			c-2-3.5-5-6.2-8.8-8c-3.9-1.8-8.7-2.8-14.5-2.8c-4.2,0-8,0.4-11.3,1.2c-3.3,0.8-6.4,1.9-9.1,3.4c-2.7,1.5-5.2,3.4-7.5,5.7
			l-34.2-6.3l11-96.7H291v35h-76.5l-4.5,34.7l-0.8,4.2h0.3c3.5-4,8.4-7.1,14.7-9.2c6.3-2.1,13.3-3.2,21-3.2
			c11.4,0,21.1,2.3,29.2,6.8c8.1,4.6,14.3,10.8,18.7,18.7c4.4,7.9,6.6,16.9,6.6,27.1c0,10.7-1.8,19.9-5.4,27.7
			c-3.6,7.8-8.6,14.2-15,19.3c-6.4,5.1-13.7,8.9-21.8,11.3C249.4,352.4,240.7,353.6,231.6,353.6z"/>
		<path class="st0" d="M394.3,353.6c-23.7,0-41.6-7.5-53.8-22.6c-12.2-15.1-18.3-37.3-18.3-66.8s6.1-51.7,18.3-66.8
			c12.2-15.1,30.1-22.6,53.8-22.6s41.6,7.5,53.8,22.6c12.2,15.1,18.3,37.3,18.3,66.8s-6.1,51.7-18.3,66.8
			C435.9,346.1,418,353.6,394.3,353.6z M394.3,318.4c6.5,0,11.7-1.8,15.8-5.4c4-3.6,7-9.4,8.8-17.4c1.8-8,2.8-18.4,2.8-31.4
			c0-13-0.9-23.4-2.8-31.4c-1.8-8-4.8-13.8-8.8-17.4c-4-3.6-9.3-5.4-15.8-5.4c-6.3,0-11.5,1.8-15.6,5.4c-4.1,3.6-7.1,9.4-8.9,17.4
			c-1.8,8-2.8,18.4-2.8,31.4c0,13,0.9,23.4,2.8,31.4c1.8,8,4.8,13.8,8.9,17.4C382.8,316.6,388,318.4,394.3,318.4z"/>
		<path class="st0" d="M563.7,353.6c-23.7,0-41.6-7.5-53.8-22.6c-12.2-15.1-18.3-37.3-18.3-66.8s6.1-51.7,18.3-66.8
			c12.2-15.1,30.1-22.6,53.8-22.6c23.7,0,41.6,7.5,53.8,22.6c12.2,15.1,18.3,37.3,18.3,66.8s-6.1,51.7-18.3,66.8
			C605.2,346.1,587.3,353.6,563.7,353.6z M563.7,318.4c6.5,0,11.7-1.8,15.8-5.4c4-3.6,7-9.4,8.8-17.4c1.8-8,2.8-18.4,2.8-31.4
			c0-13-0.9-23.4-2.8-31.4c-1.8-8-4.8-13.8-8.8-17.4c-4-3.6-9.3-5.4-15.8-5.4c-6.3,0-11.5,1.8-15.6,5.4c-4.1,3.6-7.1,9.4-8.9,17.4
			c-1.8,8-2.8,18.4-2.8,31.4c0,13,0.9,23.4,2.8,31.4c1.8,8,4.8,13.8,8.9,17.4C552.1,316.6,557.3,318.4,563.7,318.4z"/>
	</g>
	<g>
		<g>
			<g>
				<defs>
					<path id="XMLID_00000125599960226836851270000007771010422945525410_" d="M398.5,433H256.7c-7.5,0-13.6-6.1-13.6-13.6v-63.6
						c0-7.5,6.1-13.6,13.6-13.6h141.8c7.5,0,13.6,6.1,13.6,13.6v63.6C412.1,426.9,406,433,398.5,433z"/>
				</defs>
				<use xlink:href="#XMLID_00000125599960226836851270000007771010422945525410_"  style="overflow:visible;fill:#0065FF;"/>
				<clipPath id="XMLID_00000090265605824836252430000007594210622048141203_">
					<use xlink:href="#XMLID_00000125599960226836851270000007771010422945525410_"  style="overflow:visible;"/>
				</clipPath>
				
					<rect x="339.7" y="320.7" style="clip-path:url(#XMLID_00000090265605824836252430000007594210622048141203_);fill:#0257D1;" width="17.3" height="139.6"/>
				
					<rect x="363.6" y="320.7" style="clip-path:url(#XMLID_00000090265605824836252430000007594210622048141203_);fill:#0257D1;" width="17.3" height="139.6"/>
				<path style="clip-path:url(#XMLID_00000090265605824836252430000007594210622048141203_);fill:#0257D1;" d="M319.4,358.3H267
					c-4.5,0-8.2,3.7-8.2,8.2v76.2c0,4.5,3.7,8.2,8.2,8.2h52.4c4.5,0,8.2-3.7,8.2-8.2v-76.2C327.6,362,323.9,358.3,319.4,358.3z"/>
				<path style="clip-path:url(#XMLID_00000090265605824836252430000007594210622048141203_);fill:#003E89;" d="M313.5,363.5h-49.8
					c-4.5,0-8.2,3.7-8.2,8.2v76.2c0,4.5,3.7,8.2,8.2,8.2h49.8c4.5,0,8.2-3.7,8.2-8.2v-76.2C321.7,367.2,318,363.5,313.5,363.5z"/>
				<path style="clip-path:url(#XMLID_00000090265605824836252430000007594210622048141203_);fill:#3998FF;" d="M308.7,358.3H254
					c-3.9,0-6.6,3.2-6.1,7l10,78.6c0.5,3.9,4.1,7,7.9,7h54.7c3.9,0,6.6-3.2,6.1-7l-10-78.6C316.1,361.5,312.6,358.3,308.7,358.3z"/>
				<path style="clip-path:url(#XMLID_00000090265605824836252430000007594210622048141203_);fill:#0257D1;" d="M418.6,422.1H233.3
					c-4.5,0-8.2,3.7-8.2,8.2v18.3c0,4.5,3.7,8.2,8.2,8.2h185.3c4.5,0,8.2-3.7,8.2-8.2v-18.3C426.8,425.8,423.1,422.1,418.6,422.1z"
					/>
			</g>
			<g>
				<g>
					<defs>
						<path id="XMLID_00000121986308413689794610000002093627767517998746_" d="M398.5,342.9H256.7c-7.5,0-13.6-6.1-13.6-13.6v-22.9
							c0-7.5,6.1-13.6,13.6-13.6h141.8c7.5,0,13.6,6.1,13.6,13.6v22.9C412.1,336.8,406,342.9,398.5,342.9z"/>
					</defs>
					<use xlink:href="#XMLID_00000121986308413689794610000002093627767517998746_"  style="overflow:visible;fill:#0065FF;"/>
					<clipPath id="XMLID_00000145744226802212486550000016614254961735165089_">
						<use xlink:href="#XMLID_00000121986308413689794610000002093627767517998746_"  style="overflow:visible;"/>
					</clipPath>
					<path style="clip-path:url(#XMLID_00000145744226802212486550000016614254961735165089_);fill:#0257D1;" d="M426.6,332.2H229.9
						c-4.5,0-8.2,3.7-8.2,8.2v16.9c0,4.5,3.7,8.2,8.2,8.2h196.8c4.5,0,8.2-3.7,8.2-8.2v-16.9C434.8,335.8,431.2,332.2,426.6,332.2z"
						/>
				</g>
				<path class="st69" d="M335.2,317.6h-71.8c-2.5,0-4.6-2.1-4.6-4.6l0,0c0-2.5,2.1-4.6,4.6-4.6h71.8c2.5,0,4.6,2.1,4.6,4.6l0,0
					C339.8,315.5,337.7,317.6,335.2,317.6z"/>
				<circle class="st70" cx="357.4" cy="313" r="4.8"/>
				<circle class="st69" cx="370.6" cy="313" r="4.8"/>
				<circle class="st70" cx="383.7" cy="313" r="4.8"/>
			</g>
			<g>
				<g>
					<defs>
						<path id="XMLID_00000136411963578548781620000006451020832967522727_" d="M398.5,294.2H256.7c-7.5,0-13.6-6.1-13.6-13.6v-22.9
							c0-7.5,6.1-13.6,13.6-13.6h141.8c7.5,0,13.6,6.1,13.6,13.6v22.9C412.1,288.1,406,294.2,398.5,294.2z"/>
					</defs>
					<use xlink:href="#XMLID_00000136411963578548781620000006451020832967522727_"  style="overflow:visible;fill:#0065FF;"/>
					<clipPath id="XMLID_00000163782003819300098720000018330341776788337819_">
						<use xlink:href="#XMLID_00000136411963578548781620000006451020832967522727_"  style="overflow:visible;"/>
					</clipPath>
					<path style="clip-path:url(#XMLID_00000163782003819300098720000018330341776788337819_);fill:#0257D1;" d="M426.6,283.4H229.9
						c-4.5,0-8.2,3.7-8.2,8.2v16.9c0,4.5,3.7,8.2,8.2,8.2h196.8c4.5,0,8.2-3.7,8.2-8.2v-16.9C434.8,287.1,431.2,283.4,426.6,283.4z"
						/>
				</g>
				<path class="st70" d="M335.2,268.8h-71.8c-2.5,0-4.6-2.1-4.6-4.6l0,0c0-2.5,2.1-4.6,4.6-4.6h71.8c2.5,0,4.6,2.1,4.6,4.6l0,0
					C339.8,266.8,337.7,268.8,335.2,268.8z"/>
				<circle class="st70" cx="357.4" cy="264.2" r="4.8"/>
				<circle class="st70" cx="370.6" cy="264.2" r="4.8"/>
				<circle class="st70" cx="383.7" cy="264.2" r="4.8"/>
			</g>
			<g>
				<g>
					<defs>
						<path id="XMLID_00000052798099944242026900000000175416009638603191_" d="M398.5,244H256.7c-7.5,0-13.6-6.1-13.6-13.6v-22.9
							c0-7.5,6.1-13.6,13.6-13.6h141.8c7.5,0,13.6,6.1,13.6,13.6v22.9C412.1,237.9,406,244,398.5,244z"/>
					</defs>
					<use xlink:href="#XMLID_00000052798099944242026900000000175416009638603191_"  style="overflow:visible;fill:#0065FF;"/>
					<clipPath id="XMLID_00000128472076503449815840000001077602110540029826_">
						<use xlink:href="#XMLID_00000052798099944242026900000000175416009638603191_"  style="overflow:visible;"/>
					</clipPath>
					<path style="clip-path:url(#XMLID_00000128472076503449815840000001077602110540029826_);fill:#0257D1;" d="M426.6,233.2H229.9
						c-4.5,0-8.2,3.7-8.2,8.2v16.9c0,4.5,3.7,8.2,8.2,8.2h196.8c4.5,0,8.2-3.7,8.2-8.2v-16.9C434.8,236.9,431.2,233.2,426.6,233.2z"
						/>
				</g>
				<path class="st69" d="M335.2,218.9h-71.8c-2.5,0-4.6-2.1-4.6-4.6l0,0c0-2.5,2.1-4.6,4.6-4.6h71.8c2.5,0,4.6,2.1,4.6,4.6l0,0
					C339.8,216.8,337.7,218.9,335.2,218.9z"/>
				<circle class="st69" cx="357.4" cy="214.3" r="4.8"/>
				<circle class="st69" cx="370.6" cy="214.3" r="4.8"/>
				<circle class="st73" cx="383.7" cy="214.3" r="4.8"/>
			</g>
			<path class="st74" d="M390.1,171.2L350,240.7c-3.2,5.6,0.8,12.6,7.3,12.6h80.3c6.5,0,10.5-7,7.3-12.6l-40.1-69.5
				C401.4,165.6,393.3,165.6,390.1,171.2z"/>
			<g>
				<path class="st18" d="M397.5,196.7c2.2,0,5.3,0.4,5.4,2.8c0,0.8-0.1,1.9-0.3,2.8c-0.6,4.1-2.5,14.1-3.6,22.2h-3.1
					c-0.9-7.4-2.8-17.6-3.5-22c-0.2-0.8-0.4-2.2-0.4-3C392,197.3,395.2,196.7,397.5,196.7z M397.5,240c-3,0-5.2-2.2-5.2-5.4
					c0-3.1,2.2-5.3,5.2-5.3c3.1,0,5.2,2.2,5.2,5.3C402.8,237.8,400.6,240,397.5,240z"/>
			</g>
		</g>
		<g>
			<path class="st69" d="M554,392.1h-9.5c-4.5,0-8.2-3.7-8.2-8.2v-8.7c0-4.5,3.7-8.2,8.2-8.2h9.5c4.5,0,8.2,3.7,8.2,8.2v8.7
				C562.2,388.4,558.5,392.1,554,392.1z"/>
			<circle class="st75" cx="549.3" cy="379.5" r="8.4"/>
			<g>
				<path class="st76" d="M547,382.3L547,382.3c-0.5,0-0.9-0.4-0.9-0.9v-3.8c0-0.5,0.4-0.9,0.9-0.9l0,0c0.5,0,0.9,0.4,0.9,0.9v3.8
					C547.9,381.9,547.5,382.3,547,382.3z"/>
				<path class="st76" d="M551.6,382.3L551.6,382.3c-0.5,0-0.9-0.4-0.9-0.9v-3.8c0-0.5,0.4-0.9,0.9-0.9l0,0c0.5,0,0.9,0.4,0.9,0.9
					v3.8C552.5,381.9,552.1,382.3,551.6,382.3z"/>
			</g>
		</g>
		<g>
			<path class="st77" d="M501.5,422.6c0.3,0.4,0.4,0.9,0.2,1.4c-0.7,1.6-3.7,2.3-59,5c-11.1,0.5-21.6,1.1-30,1.6
				c-0.7,0-1.5,0.1-2.2,0.1c-18.3,0-34.4-13.6-48.6-25.6c-9.1-7.7-17.8-15.1-25.4-17.2c-4.1-1.1-11-0.9-17.1-0.5l-0.3-2.3
				c6.2-0.5,13.6-0.7,18,0.5c8.1,2.2,17,9.7,26.3,17.6c14.4,12.2,30.8,26.1,49.1,25c8.5-0.5,19-1,30.1-1.6c20.9-1,46.1-2.3,54.5-3.4
				c-1.8-0.5-4.2-1-6.3-1.4c-10.3-2.2-17.7-4.1-19.2-7.1c-0.4-0.8-0.3-1.6,0.1-2.4c1.9-3.6,12.2-1.6,30.3,2.3
				c10.3,2.2,28.5,4.5,34.3,4.4l0,2.3c-6.1,0.1-24.4-2.2-34.8-4.5c-7.1-1.5-13.8-3-19.1-3.7c-7.8-1.1-8.6,0-8.7,0.2
				c-0.1,0.1-0.1,0.2,0,0.3c1,2.2,11.4,4.5,17.6,5.8C498,421,500.6,421.7,501.5,422.6z"/>
		</g>
		<path class="st77" d="M544.4,425.9h-4.5c-3.1,0-5.6-2.5-5.6-5.6v0c0-3.1,2.5-5.6,5.6-5.6h4.4c2.1,0,3.8,1.7,3.8,3.8v3.8
			C548,424.3,546.3,425.9,544.4,425.9z"/>
		<g>
			<path class="st77" d="M551.8,419.6H544c-0.3,0-0.6-0.3-0.6-0.6l0,0c0-0.3,0.3-0.6,0.6-0.6h7.8c0.3,0,0.6,0.3,0.6,0.6l0,0
				C552.4,419.3,552.1,419.6,551.8,419.6z"/>
			<path class="st77" d="M551.8,422.6H544c-0.3,0-0.6-0.3-0.6-0.6l0,0c0-0.3,0.3-0.6,0.6-0.6h7.8c0.3,0,0.6,0.3,0.6,0.6l0,0
				C552.4,422.3,552.1,422.6,551.8,422.6z"/>
		</g>
		<g>
			<g>
				<defs>
					<path id="XMLID_00000164477558149073053230000010174498702365740173_" d="M459.2,424.7c0,0-1.8,1.8-8.1,3.6
						c-5.3,1.5-13.9,3-27.3,3.3c-0.4,0-0.8,0-1.2,0c0,0-22.5,11.8-46.9,2.1c-24.5-9.7-14.5-42.5-14.5-42.5s-4.7-22.8,0.6-29.9
						c2.5-3.4,7.3-3.2,15.9,4.7c0,0,5.4-7.7,20.7-10.3c0,0-1.6-11.8,0.8-14.9c0.2-0.3,0.5-0.6,1-0.8c3.8-2.4,15.1-2.3,22.5,10.2
						c0,0,8.1-20.4,52.1-17.8c44.1,2.6,44.2,61.7,44.2,61.7S533.4,433.5,459.2,424.7z"/>
				</defs>
				<use xlink:href="#XMLID_00000164477558149073053230000010174498702365740173_"  style="overflow:visible;fill:#B56542;"/>
				<clipPath id="XMLID_00000025411010633820480730000002032495702373902512_">
					<use xlink:href="#XMLID_00000164477558149073053230000010174498702365740173_"  style="overflow:visible;"/>
				</clipPath>
				<path style="clip-path:url(#XMLID_00000025411010633820480730000002032495702373902512_);fill:#CC8652;" d="M377.6,366
					c0,0,2.3,7.5,10.8,6.5c8.6-1,10.1-13.9,9.8-16.9C398,352.7,376,353.4,377.6,366"/>
				<path style="clip-path:url(#XMLID_00000025411010633820480730000002032495702373902512_);fill:#CC8652;" d="M467.5,401.3
					c0,0,16.9,4.7,19.5,3c2.6-1.7-9.9-9.6-17.8-8.8C461.4,396.4,467.5,401.3,467.5,401.3z"/>
				<path style="clip-path:url(#XMLID_00000025411010633820480730000002032495702373902512_);fill:#CC8652;" d="M471.3,392.2
					c0,0,15.6,1.9,15.3-0.2s-12.3-4.7-12.3-4.7L471.3,392.2z"/>
				<path style="clip-path:url(#XMLID_00000025411010633820480730000002032495702373902512_);fill:#CC8652;" d="M428.2,336.6
					c0,0,10.6,14.6,15.9,14.9c5.3,0.3,3.3-18.8,3-21.5c-0.2-2.7,15.5-2.7,15.5-2.7s-7.6,22.4-5.3,23.5s32.2-13.7,33.4-19.9
					C491.8,324.6,436.7,311.7,428.2,336.6z"/>
				<path style="clip-path:url(#XMLID_00000025411010633820480730000002032495702373902512_);fill:#CC8652;" d="M505.6,344.6
					c0,0-27.7,7.8-25.3,10.3c2.4,2.5,34.2-0.4,33.7-2.6C513.6,350.1,505.6,344.6,505.6,344.6z"/>
			</g>
			<path class="st79" d="M454.5,410.3c-0.5,7.5-1.7,13.4-3.3,18c-5.3,1.5-13.9,3-27.3,3.3c10.2-10.1,32.6-37.7,7.7-66.8
				C431.6,364.8,457.3,367,454.5,410.3z"/>
			<path class="st79" d="M471,412.6c0,0-7.4-19.4,11.8-31.5c0,0-24.2,8.6-19.7,31.4L471,412.6z"/>
			<path class="st5" d="M391.6,389.4c-0.8,0.4-1.5,0.9-2.2,1.4c-1.5,1.1-2.9,2.4-4.3,3.7c-3.5,3.3-6.7,7.4-8.1,12.1
				c-0.7,2.4-0.9,5-0.4,7.5c2.8,13.5,34.9,4.1,43-7.3c1.5-2,2.7-4.2,3.7-6.5c1-2.2,1.8-4.6,2.1-7.1c0.2-2,0.1-4.3-0.9-6.1
				c-1.1-2-3.2-3.1-5.3-3.6c-3.6-0.8-7.5-0.3-11.1,0.5c-2.6,0.5-5.2,1.3-7.8,2.1c-1.5,0.5-3.1,1-4.6,1.6
				C394.2,388.2,392.9,388.7,391.6,389.4z"/>
			<path class="st80" d="M518.8,394c0,0-7.6,15.5-19.4,18c-11.8,2.5-53.9-17.7-67.2-5.4c-13.2,12.3-13.8,26.5-4.8,28.3
				C436.4,436.7,551.9,444.2,518.8,394z"/>
			<path class="st80" d="M371.3,370.9c-0.7,0.7,0.7,2.6,0.7,2.6s-3.4-0.8-4.2-0.5c-0.9,0.3-0.1,1.8,0.6,2.1c0.6,0.3,2.7,0,2.7,0
				c-0.6,0.6-9.8,16.1-9.8,16.1s-4.7-22.8,0.6-29.9c9.5-1.1,12,9.4,12,9.4S372,370.2,371.3,370.9z"/>
			<path class="st80" d="M426,356.3c0,0-12.6-2.4-21.4-1.3c0,0,1.7-0.7,1.5-1.2c-0.2-0.5-2,0.1-2.3,0.2c0.3-0.2,2.9-1.8,1.8-2
				c-1.2-0.3-3.3,1-3.3,1s-3.1-8.9-2.2-13.2c3.8-2.4,15.1-2.3,22.5,10.2L426,356.3z"/>
			<path class="st80" d="M393.4,399.3c0,0-3.9-0.5-3.8-3.6c0.1-3.1,6-2,6-2s2-4.9,4.1-3.9C401.6,390.8,405.1,400.5,393.4,399.3z"/>
			<path class="st81" d="M381.4,409.4c0,0,18.9,7.3,21.4-3.9c0,0,17.7,0.4,13.8-16.9"/>
			<line class="st81" x1="402.7" y1="405.6" x2="397.9" y2="397.1"/>
			<path class="st81" d="M394.9,380.9c0,0,11.3,1.9,16.9-6.1"/>
			<path class="st81" d="M382.3,385.7c0,0,2.7,6.8-8.5,12.2"/>
			<line class="st81" x1="413.3" y1="384.1" x2="415.7" y2="379.5"/>
			<line class="st81" x1="417.8" y1="385.4" x2="423.4" y2="382.5"/>
		</g>
	</g>
</g>
</svg>
