<?xml version="1.0" encoding="utf-8"?>
<!-- Generator: Adobe Illustrator 26.5.0, SVG Export Plug-In . SVG Version: 6.00 Build 0)  -->
<svg version="1.1" id="Layer_1" xmlns="http://www.w3.org/2000/svg" xmlns:xlink="http://www.w3.org/1999/xlink" x="0px" y="0px"
	 viewBox="0 0 48 48" style="enable-background:new 0 0 48 48;" xml:space="preserve">
<style type="text/css">
	.st0{fill:url(#SVGID_1_);}
	.st1{opacity:0.9;fill:#FFFFFF;enable-background:new    ;}
	.st2{opacity:0.5;fill:#FFFFFF;enable-background:new    ;}
</style>
<g id="Layer_1_00000096031525964117438930000001422878241585358984_">
	
		<linearGradient id="SVGID_1_" gradientUnits="userSpaceOnUse" x1="8.61" y1="39.2798" x2="40.62" y2="7.2698" gradientTransform="matrix(1 0 0 -1 0 47.8898)">
		<stop  offset="0" style="stop-color:#3FBCFF"/>
		<stop  offset="0.1" style="stop-color:#3FB3FF"/>
		<stop  offset="0.46" style="stop-color:#3F95FF"/>
		<stop  offset="0.78" style="stop-color:#3F83FF"/>
		<stop  offset="1" style="stop-color:#3F7CFF"/>
	</linearGradient>
	<path class="st0" d="M14,4h20c5.5,0,10,4.5,10,10v20c0,5.5-4.5,10-10,10H14C8.5,44,4,39.5,4,34V14C4,8.5,8.5,4,14,4z"/>
	<path class="st1" d="M24,13c-6.1,0-11,4.9-11,11s4.9,11,11,11s11-4.9,11-11S30.1,13,24,13z M15.1,25h3c0.1,2.4,0.7,4.8,1.8,7
		C17.2,30.6,15.4,28,15.1,25z M18.1,23h-3c0.3-3,2.1-5.6,4.8-7C18.7,18.2,18.1,20.6,18.1,23L18.1,23z M23.1,32.7
		c-1.4-0.9-2.8-3.8-3-7.7h3V32.7z M23,23h-3c0.2-3.9,1.5-6.7,3-7.7V23z M25,32.7V25h3C27.8,28.9,26.4,31.7,25,32.7z M25,23v-7.7
		c1.4,0.9,2.8,3.8,3,7.7H25z M28.2,32c1.1-2.2,1.8-4.6,1.8-7h3C32.7,28,30.9,30.6,28.2,32z M30,23c-0.1-2.4-0.7-4.8-1.8-7
		c2.7,1.4,4.4,4,4.8,7H30z"/>
	<path class="st2" d="M25,32.7c1.4-0.9,2.8-3.8,3-7.7h-3V32.7z"/>
	<path class="st2" d="M28.2,16c1.1,2.2,1.8,4.6,1.8,7h3C32.7,20,30.9,17.4,28.2,16z"/>
	<path class="st2" d="M25,15.3V23h3C27.8,19.1,26.4,16.3,25,15.3z"/>
	<path class="st2" d="M30,25c-0.1,2.4-0.7,4.8-1.8,7c2.7-1.4,4.4-4,4.8-7H30z"/>
	<path class="st2" d="M15.1,25c0.3,3,2.1,5.6,4.8,7c-1.1-2.2-1.8-4.6-1.8-7H15.1z"/>
	<path class="st2" d="M15.1,23h3c0.1-2.4,0.7-4.8,1.8-7C17.2,17.4,15.4,20,15.1,23z"/>
	<path class="st2" d="M23,32.7V25h-3C20.2,28.9,21.6,31.7,23,32.7z"/>
	<path class="st2" d="M23,15.3c-1.4,0.9-2.8,3.8-3,7.7h3V15.3z"/>
</g>
</svg>
