<?xml version="1.0" encoding="UTF-8"?><svg id="a" xmlns="http://www.w3.org/2000/svg" xmlns:xlink="http://www.w3.org/1999/xlink" viewBox="0 0 40 40"><defs><linearGradient id="b" x1="-1.34" y1="-12.63" x2="28.66" y2="33.24" gradientUnits="userSpaceOnUse"><stop offset=".34" stop-color="#a580ff"/><stop offset=".97" stop-color="#7d48ff"/></linearGradient></defs><rect width="40" height="40" rx="10" ry="10" fill="url(#b)" stroke-width="0"/><path d="m30.01,20.59h-2.04c0-4.72-3.83-8.55-8.55-8.55v-2.04c5.85,0,10.59,4.74,10.59,10.59Z" fill="#fff" isolation="isolate" opacity=".9" stroke-width="0"/><path d="m26.97,20.59h-2.63c0-2.71-2.21-4.92-4.92-4.92v-2.63c4.16,0,7.55,3.39,7.55,7.55Z" fill="#fff" isolation="isolate" opacity=".9" stroke-width="0"/><path d="m23.34,20.59h-3.92v-3.92c2.16,0,3.92,1.76,3.92,3.92Z" fill="#fff" isolation="isolate" opacity=".9" stroke-width="0"/><path d="m17.42,22.59v-9.13c-3.94,1.1-6.24,5.19-5.14,9.13,1.1,3.94,5.19,6.24,9.13,5.14,2.5-.7,4.45-2.65,5.14-5.14h-9.13Z" fill="#fff" isolation="isolate" opacity=".5" stroke-width="0"/></svg>