<?xml version="1.0" encoding="utf-8"?>
<!-- Generator: Adobe Illustrator 26.5.0, SVG Export Plug-In . SVG Version: 6.00 Build 0)  -->
<svg version="1.1" id="Layer_1" xmlns="http://www.w3.org/2000/svg" xmlns:xlink="http://www.w3.org/1999/xlink" x="0px" y="0px"
	 viewBox="0 0 48 48" style="enable-background:new 0 0 48 48;" xml:space="preserve">
<style type="text/css">
	.st0{fill:url(#SVGID_1_);}
	.st1{opacity:0.9;fill:#FFFFFF;enable-background:new    ;}
	.st2{opacity:0.5;fill:#FFFFFF;}
</style>
<g id="Layer_1_00000014615966136306345700000001807625912848166300_">
	
		<linearGradient id="SVGID_1_" gradientUnits="userSpaceOnUse" x1="8.61" y1="802.61" x2="40.62" y2="834.6201" gradientTransform="matrix(1 0 0 1 0 -794)">
		<stop  offset="0" style="stop-color:#7F99FF"/>
		<stop  offset="0.25" style="stop-color:#618EFF"/>
		<stop  offset="0.55" style="stop-color:#4382FF"/>
		<stop  offset="0.81" style="stop-color:#317BFF"/>
		<stop  offset="1" style="stop-color:#2A79FF"/>
	</linearGradient>
	<path class="st0" d="M14,4h20c5.5,0,10,4.5,10,10v20c0,5.5-4.5,10-10,10H14C8.5,44,4,39.5,4,34V14C4,8.5,8.5,4,14,4z"/>
</g>
<path class="st1" d="M33.6,19.1c0,0.6-0.5,1.1-1.1,1.1h-17c-0.6,0-1.1-0.5-1.1-1.1s0.5-1.1,1.1-1.1l5.3-1v-1.5
	c0-0.9,0.7-1.6,1.6-1.6h3.2c0.9,0,1.6,0.7,1.6,1.6V17l5.3,1C33.1,18.1,33.6,18.6,33.6,19.1z"/>
<path class="st2" d="M15.4,22.3v9.1c0,1.5,0.4,2.7,2.3,2.7l13-0.2c1.9,0,2.3-1,2.3-2.5v-9.1H15.4z"/>
</svg>
