<?xml version="1.0" encoding="utf-8"?>
<!-- Generator: Adobe Illustrator 26.5.0, SVG Export Plug-In . SVG Version: 6.00 Build 0)  -->
<svg version="1.1" id="Layer_1" xmlns="http://www.w3.org/2000/svg" xmlns:xlink="http://www.w3.org/1999/xlink" x="0px" y="0px"
	 viewBox="0 0 48 48" style="enable-background:new 0 0 48 48;" xml:space="preserve">
<style type="text/css">
	.st0{fill:url(#SVGID_1_);}
	.st1{opacity:0.9;enable-background:new    ;}
	.st2{opacity:0.9;fill:#FFFFFF;enable-background:new    ;}
	.st3{opacity:0.5;fill:#FFFFFF;enable-background:new    ;}
</style>
<g id="Layer_1_00000014615966136306345700000001807625912848166300_">
	
		<linearGradient id="SVGID_1_" gradientUnits="userSpaceOnUse" x1="8.61" y1="802.61" x2="40.62" y2="834.6201" gradientTransform="matrix(1 0 0 1 0 -794)">
		<stop  offset="0" style="stop-color:#7F99FF"/>
		<stop  offset="0.25" style="stop-color:#618EFF"/>
		<stop  offset="0.55" style="stop-color:#4382FF"/>
		<stop  offset="0.81" style="stop-color:#317BFF"/>
		<stop  offset="1" style="stop-color:#2A79FF"/>
	</linearGradient>
	<path class="st0" d="M14,4h20c5.5,0,10,4.5,10,10v20c0,5.5-4.5,10-10,10H14C8.5,44,4,39.5,4,34V14C4,8.5,8.5,4,14,4z"/>
</g>
<g class="st1">
</g>
<g class="st1">
</g>
<g class="st1">
</g>
<g class="st1">
</g>
<g class="st1">
</g>
<g class="st1">
</g>
<g>
	<path class="st2" d="M19.5,33.5h9c0.4,0,0.7-0.6,0.7-1.3v-3.9c0-2.9-1.1-5.1-2.6-5.1h-5.1c-1.4,0-2.6,2.3-2.6,5.1v3.9
		C18.9,32.9,19.2,33.5,19.5,33.5z"/>
	<circle class="st2" cx="24" cy="17.3" r="2.9"/>
	<path class="st3" d="M17.4,32.3c0,0.5,0.1,1,0.2,1.2h-4.6c-0.3,0-0.5-0.5-0.5-1v-3.1c0-2.4,1-4.2,2.1-4.2H18
		c-0.3,1-0.5,2.1-0.5,3.2L17.4,32.3L17.4,32.3z"/>
	<circle class="st3" cx="16.8" cy="20.3" r="2.3"/>
	<path class="st3" d="M35.4,29.3v3.1c0,0.6-0.2,1-0.5,1h-4.6c0.2-0.4,0.2-0.8,0.2-1.2v-3.9c0-1.2-0.2-2.3-0.5-3.2h3.3
		C34.5,25.1,35.4,26.9,35.4,29.3z"/>
	<circle class="st3" cx="31.2" cy="20.3" r="2.3"/>
</g>
</svg>
