<?xml version="1.0" encoding="utf-8"?>
<!-- Generator: Adobe Illustrator 27.0.0, SVG Export Plug-In . SVG Version: 6.00 Build 0)  -->
<svg version="1.1" id="Layer_1" xmlns="http://www.w3.org/2000/svg" xmlns:xlink="http://www.w3.org/1999/xlink" x="0px" y="0px"
	 viewBox="0 0 48 48" style="enable-background:new 0 0 48 48;" xml:space="preserve">
<style type="text/css">
	.st0{fill:url(#SVGID_1_);}
	.st1{opacity:0.9;enable-background:new    ;}
	.st2{fill:#FFFFFF;}
</style>
<g id="Layer_1_00000014615966136306345700000001807625912848166300_">
	
		<linearGradient id="SVGID_1_" gradientUnits="userSpaceOnUse" x1="8.61" y1="-754.7202" x2="40.62" y2="-786.7303" gradientTransform="matrix(1 0 0 -1 0 -746.1102)">
		<stop  offset="0" style="stop-color:#7F99FF"/>
		<stop  offset="0.25" style="stop-color:#618EFF"/>
		<stop  offset="0.55" style="stop-color:#4382FF"/>
		<stop  offset="0.81" style="stop-color:#317BFF"/>
		<stop  offset="1" style="stop-color:#2A79FF"/>
	</linearGradient>
	<path class="st0" d="M14,4h20c5.5,0,10,4.5,10,10v20c0,5.5-4.5,10-10,10H14C8.5,44,4,39.5,4,34V14C4,8.5,8.5,4,14,4z"/>
</g>
<g id="_x32_01-linkedin" class="st1">
	<g>
		<rect x="14.8" y="20.5" class="st2" width="4.1" height="12.7"/>
		<path class="st2" d="M30.1,20.7c0,0-0.1,0-0.1,0c-0.1,0-0.1,0-0.2,0c-0.2,0-0.5-0.1-0.7-0.1c-2.4,0-3.9,1.8-4.4,2.4v-2.4h-4.1
			v12.7h4.1v-6.9c0,0,3.1-4.4,4.4-1.2v8.1h4.1v-8.6C33.2,22.7,31.9,21.1,30.1,20.7z"/>
		<path class="st2" d="M16.8,18.8c1.1,0,2-0.9,2-2c0-1.1-0.9-2-2-2c-1.1,0-2,0.9-2,2C14.8,17.9,15.7,18.8,16.8,18.8z"/>
	</g>
</g>
<g id="Layer_1_00000091702998159947044830000016838960835010396298_">
</g>
</svg>
