<?xml version="1.0" encoding="utf-8"?>
<!-- Generator: Adobe Illustrator 26.5.0, SVG Export Plug-In . SVG Version: 6.00 Build 0)  -->
<svg version="1.1" id="Layer_1" xmlns="http://www.w3.org/2000/svg" xmlns:xlink="http://www.w3.org/1999/xlink" x="0px" y="0px"
	 viewBox="0 0 48 48" style="enable-background:new 0 0 48 48;" xml:space="preserve">
<style type="text/css">
	.st0{fill:url(#SVGID_1_);}
	.st1{opacity:0.9;enable-background:new    ;}
	.st2{opacity:0.5;fill:#FFFFFF;enable-background:new    ;}
	.st3{opacity:0.9;fill:#FFFFFF;enable-background:new    ;}
</style>
<g id="Layer_1_00000014615966136306345700000001807625912848166300_">
	
		<linearGradient id="SVGID_1_" gradientUnits="userSpaceOnUse" x1="8.61" y1="802.61" x2="40.62" y2="834.6201" gradientTransform="matrix(1 0 0 1 0 -794)">
		<stop  offset="0" style="stop-color:#7F99FF"/>
		<stop  offset="0.25" style="stop-color:#618EFF"/>
		<stop  offset="0.55" style="stop-color:#4382FF"/>
		<stop  offset="0.81" style="stop-color:#317BFF"/>
		<stop  offset="1" style="stop-color:#2A79FF"/>
	</linearGradient>
	<path class="st0" d="M14,4h20c5.5,0,10,4.5,10,10v20c0,5.5-4.5,10-10,10H14C8.5,44,4,39.5,4,34V14C4,8.5,8.5,4,14,4z"/>
</g>
<g class="st1">
</g>
<g class="st1">
</g>
<g class="st1">
</g>
<g class="st1">
</g>
<g class="st1">
</g>
<g class="st1">
</g>
<g>
	<path class="st2" d="M17.3,33.5h13.3c0.5,0,1-0.4,1-1v-2.9c0-2.1-1.7-3.8-3.8-3.8h-7.6c-2.1,0-3.8,1.7-3.8,3.8v2.9
		C16.4,33.1,16.8,33.5,17.3,33.5z"/>
	<circle class="st3" cx="24" cy="18.3" r="3.8"/>
</g>
</svg>
