<?xml version="1.0" encoding="utf-8"?>
<!-- Generator: Adobe Illustrator 26.5.0, SVG Export Plug-In . SVG Version: 6.00 Build 0)  -->
<svg version="1.1" id="Layer_1" xmlns="http://www.w3.org/2000/svg" xmlns:xlink="http://www.w3.org/1999/xlink" x="0px" y="0px"
	 viewBox="0 0 48 48" style="enable-background:new 0 0 48 48;" xml:space="preserve">
<style type="text/css">
	.st0{fill:url(#SVGID_1_);}
	.st1{opacity:0.9;enable-background:new    ;}
	.st2{opacity:0.9;fill:#FFFFFF;enable-background:new    ;}
	.st3{opacity:0.5;fill:#FFFFFF;}
</style>
<g id="Layer_1_00000014615966136306345700000001807625912848166300_">
	
		<linearGradient id="SVGID_1_" gradientUnits="userSpaceOnUse" x1="8.61" y1="802.61" x2="40.62" y2="834.6201" gradientTransform="matrix(1 0 0 1 0 -794)">
		<stop  offset="0" style="stop-color:#7F99FF"/>
		<stop  offset="0.25" style="stop-color:#618EFF"/>
		<stop  offset="0.55" style="stop-color:#4382FF"/>
		<stop  offset="0.81" style="stop-color:#317BFF"/>
		<stop  offset="1" style="stop-color:#2A79FF"/>
	</linearGradient>
	<path class="st0" d="M14,4h20c5.5,0,10,4.5,10,10v20c0,5.5-4.5,10-10,10H14C8.5,44,4,39.5,4,34V14C4,8.5,8.5,4,14,4z"/>
</g>
<g class="st1">
</g>
<g class="st1">
</g>
<g class="st1">
</g>
<g class="st1">
</g>
<g class="st1">
</g>
<g class="st1">
</g>
<path class="st2" d="M24,35.2c-6.2,0-11.2-5-11.2-11.2c0-6.2,5-11.2,11.2-11.2c6.2,0,11.2,5,11.2,11.2C35.2,30.2,30.2,35.2,24,35.2z
	 M29.6,25.7c0-0.9-0.8-1.7-1.7-1.7h-7.9c-0.9,0-1.7,0.8-1.7,1.7v0.6c0,2.2,2.1,4.5,5.6,4.5c3.5,0,5.6-2.3,5.6-4.5V25.7z M27.1,19.8
	c0-1.7-1.4-3.1-3.1-3.1s-3.1,1.4-3.1,3.1c0,1.7,1.4,3.1,3.1,3.1S27.1,21.5,27.1,19.8z"/>
<path class="st3" d="M20.9,19.8c0-1.7,1.4-3.1,3.1-3.1s3.1,1.4,3.1,3.1c0,1.7-1.4,3.1-3.1,3.1S20.9,21.5,20.9,19.8z"/>
<path class="st3" d="M29.6,25.7v0.6c0,2.2-2.1,4.5-5.6,4.5s-5.6-2.3-5.6-4.5v-0.6c0-0.9,0.8-1.7,1.7-1.7h7.9
	C28.9,24,29.6,24.7,29.6,25.7z"/>
</svg>
